<svg xmlns="http://www.w3.org/2000/svg" width="696" height="532" viewBox="0 0 522 399"><path d="M226 85a499 499 0 0 1 112-9c27 2 55 4 81 13 16 7 32 16 46 26 5 3 10 4 15 5 8 3 17 5 22 12 9 11 11 25 12 39l2 29c0 4-3 8-5 11 1-15-1-32-9-45-4-6-10-11-17-10-7 2-12 8-16 14-8 13-10 28-13 43l-148 31-1-20c-1-13-6-27-16-37-8-7-20-10-30-6s-18 13-24 22c-9 16-12 33-13 51-1 7 0 15-4 21-5 7-13 11-21 13-11 2-21 1-32 0l-95-7-48-9c-4-2-8-6-10-10-1-2-1-5 1-7 1 3 4 5 7 5 18 6 38 8 57 10l50 4h20l-12-1c-37-3-75-5-111-15-4-7-6-15-9-22l-5-4c-2-2-4-5-7-6-1-7-1-14 2-20 2-6 4-13 8-18 5-8 13-14 20-19 13-9 28-14 43-18 20-5 39-10 59-13 4 0 6-4 9-6l35-24c15-9 29-18 45-23m30 4-36 2c-4 0-8 2-12 4a4356 4356 0 0 0-64 42l61 2 88 6c14-18 27-36 45-50-27-5-55-6-82-6m99 9c-11 4-18 13-25 21-7 11-16 21-20 34l123-17c5 0 10-2 12-7l3-15c-15-11-33-19-51-22 5 14 8 29 9 44l-4 1c-1-16-4-31-10-46-13 0-26 1-37 7m54 53c0 2 0 6 3 6l18-4v-3c-1-1-1-3-3-2l-18 3M27 177c-5 4-10 9-12 16-2 5 1 10 3 14 3-1 3-4 4-6 4-9 6-17 8-26l-3 2m103 28-11 8 2 2 31-3c12-1 24-2 35-5 15-3 29-13 37-26-7-2-13-1-20-1-26 2-52 11-74 25m-99-1c-2 2-4 5-4 8 0 7-1 13 1 19 0 2 1 5 4 5l15 3c13 2 26 4 39 4 4 1 7-2 9-6l7-23c1-3-2-5-5-5l-55-5H31m99 40c-2 1-4 0-5 2 0 5 3 8 5 12 3 5 6 10 11 13l9 1h18c6-1 13 0 19-2 1 0 4-1 5-3s0-5-1-7c-3-5-9-9-14-13-4-3-9-4-14-4l-33 1Z"/><path d="M475 168c4-5 10-10 17-7s11 11 13 18c5 14 5 30 3 44-2 12-6 24-16 31-6 5-13 4-20 4l-21-1c-6-2-11-8-13-14l17-3 4-27c2-16 5-33 16-45m-4 19c-6 14-6 30-2 44 2 7 5 15 12 18 6 2 12-1 15-5 7-9 10-21 10-33 0-11-2-23-8-33-3-4-8-8-14-6-7 2-10 9-13 15Z"/><path d="M484 177c5-3 10 1 12 6l-8 20-5-1 1-25ZM470 200c2-7 4-16 10-21l2 23-2 5-10-7ZM243 201c5-8 13-15 23-17 9-2 19 2 25 9 9 10 13 24 14 37 2 18-3 37-11 53-5 11-13 21-24 24-9 3-18 0-27-1-6-1-13 0-19-4-6-3-11-9-14-15 8-3 14-10 16-19l1-16c1-18 6-36 16-51m21-5c-6 2-11 6-15 11a74 74 0 0 0-10 50c1 12 4 24 12 33 4 5 10 9 16 8 8-1 15-7 19-14 11-15 14-35 12-54-1-10-4-20-11-28-6-6-15-9-23-6ZM498 186c4 9 5 19 5 29l-12-4-2-7 9-18Z"/><path d="M265 202c6-1 12 0 17 4 1 2 4 4 3 7-3 8-7 14-12 21-2 2-5-1-5-3l-2-14-1-15ZM244 234c2-11 7-21 15-29 2 2 2 4 3 7 2 6 4 12 4 19 0 3-2 6-4 9-6-2-11-5-18-6ZM469 208l11 1 2 9c-3 5-5 11-9 16-3-9-4-17-4-26ZM490 213l12 4c-1 9-4 19-11 25l-3-21c-1-3 2-5 2-8ZM286 218l3-1c5 10 5 21 4 31 0 2-1 2-2 3l-17-5c0-3-2-8 1-11l11-17ZM307 251l149-33-3 21-151 30c3-6 4-12 5-18ZM482 223c1-2 1-4 3-4s2 3 2 4c1 7 3 14 1 22-5 0-9-2-12-6l6-16ZM5 229l9 8c2 2 3 6 4 9-3-1-5-4-9-5 2 5 6 6 10 8l3 9c-4-2-9-5-11-10-2-6-3-13-6-19ZM243 242l18 5c2 3 2 8 1 11l-11 19-3-2c-3-8-4-16-5-25v-8ZM127 247c13-1 27-2 41-1 7 1 11 6 16 10l-51 1-6-10ZM273 248l20 6c-1 9-5 17-9 25l-4 2-7-21v-12ZM265 258c2-2 5-1 6 0l3 9 5 17c-4 4-10 7-15 6-4 0-7-3-10-5l8-21c1-2 1-5 3-6ZM134 259l51-1c2 2 4 4 3 7s-5 3-8 3l-36 1c-5-1-7-7-10-10Z"/></svg>