<?xml version="1.0" encoding="UTF-8" standalone="no"?><!DOCTYPE svg PUBLIC "-//W3C//DTD SVG 1.1//EN" "http://www.w3.org/Graphics/SVG/1.1/DTD/svg11.dtd"><svg width="100%" height="100%" viewBox="0 0 3003 3003" version="1.1" xmlns="http://www.w3.org/2000/svg" xmlns:xlink="http://www.w3.org/1999/xlink" xml:space="preserve" xmlns:serif="http://www.serif.com/" style="fill-rule:evenodd;clip-rule:evenodd;stroke-linejoin:round;stroke-miterlimit:2;"><path d="M250.327,1558.19l-180.327,-0c-31.287,-0 -56.689,-25.402 -56.689,-56.689c0,-31.287 25.402,-56.689 56.689,-56.689l124.847,0c29.731,-695.572 603.818,-1251.17 1306.65,-1251.17c702.835,0 1276.92,555.601 1306.65,1251.17l124.847,0c31.287,0 56.689,25.402 56.689,56.689c-0,31.287 -25.402,56.689 -56.689,56.689l-180.327,-0c-31.287,-0 -56.689,-25.402 -56.689,-56.689c0,-659.254 -535.23,-1194.48 -1194.48,-1194.48c-659.254,-0 -1194.48,535.23 -1194.48,1194.48c-0,31.287 -25.402,56.689 -56.689,56.689Z" style="fill:#df8425;"/><path d="M1492.01,2619.6c-612.936,-8.608 -1104.59,-513.573 -1096,-1125.64c8.591,-612.069 514.221,-1103.04 1127.16,-1094.44c612.93,8.602 1104.58,513.573 1095.99,1125.65c-8.588,612.063 -514.221,1103.03 -1127.16,1094.43Zm29.561,-2105.85c-550.526,-7.726 -1004.69,432.667 -1012.4,981.803c-7.708,549.097 433.917,1002.1 984.443,1009.83c550.494,7.73 1004.66,-432.695 1012.36,-981.792c7.711,-549.143 -433.913,-1002.11 -984.407,-1009.84Z" style="fill:#df8425;"/><path d="M1502.69,2225.64c-392.718,-5.513 -707.824,-332.204 -702.264,-728.42c5.562,-396.221 329.717,-713.97 722.435,-708.455c392.685,5.516 707.793,332.229 702.235,728.461c-5.565,396.212 -329.713,713.926 -722.406,708.414Zm18.624,-1326.82c-332.718,-4.671 -607.083,264.539 -611.79,599.945c-4.71,335.384 261.995,612.154 594.712,616.825c332.688,4.671 607.086,-264.501 611.79,-599.892c4.713,-335.405 -262.024,-612.204 -594.712,-616.878Z" style="fill:#df8425;"/><path d="M2072.57,1510.47c-0,308.847 -250.372,559.213 -559.213,559.213c-308.844,-0 -559.21,-250.366 -559.21,-559.213c-0,-308.841 250.366,-559.213 559.21,-559.213c308.841,-0 559.213,250.372 559.213,559.213Zm-107.459,-0c0,-249.496 -202.258,-451.755 -451.754,-451.755c-249.494,0 -451.754,202.259 -451.754,451.755c-0,249.496 202.26,451.757 451.754,451.757c249.496,-0 451.754,-202.261 451.754,-451.757Z" style="fill:#df8425;"/><path d="M1128.66,1628.09l-6.382,-21.897l-0.767,-2.984l-0.003,-0.014l-4.928,-22.232c-0,0 -0.572,-3.048 -0.58,-3.085l-3.472,-22.538c0,0 -0.361,-3.002 -0.373,-3.076l-1.995,-22.748l-0.006,-0.065l-0.162,-2.992l-0,-0.014l-0.504,-22.813l0.026,-2.978l0.004,-0.113l0.985,-22.708l0.236,-3.161l2.472,-22.675c0,0 0.429,-3.007 0.436,-3.069l3.95,-22.49l0.012,-0.064l0.618,-2.942l5.412,-22.185l3.168,-8.954l4.773,-7.96l6.114,-6.744l7.21,-5.389l8.103,-3.92l8.804,-2.322l9.268,-0.571l9.407,1.314l8.95,3.167l7.961,4.774l6.743,6.113l5.388,7.209l3.919,8.101l2.322,8.799l0.574,9.263l-1.31,9.405l-0.002,0.011l-5.043,20.655l-3.424,19.494l-2.14,19.629l-0.855,19.666l0.44,19.915l1.72,19.608l3.01,19.528l4.282,19.312l5.504,18.894l6.756,18.586l8.029,18.259l8.032,15.568l8.958,15.144l9.903,14.698l10.695,14.031l11.422,13.303l12.289,12.735l12.963,11.951l13.755,11.264l14.2,10.301l16.011,10.248l0.016,0.01l7.439,5.903l5.979,7.099l4.393,7.971l2.755,8.567l1.077,8.935l-0.66,9.078l-2.465,8.948l-4.288,8.463l-5.895,7.444l-7.1,5.985l-7.972,4.399l-8.568,2.758l-8.936,1.08l-9.079,-0.658l-8.952,-2.465l-8.47,-4.291l-17.075,-10.934l-2.358,-1.603l-0.012,-0.009l-16.5,-11.979l-0.007,-0.005l-2.162,-1.669l-15.698,-12.857c0,0 -2.506,-2.204 -2.139,-1.859l-14.999,-13.815l-0.098,-0.092c-0,0 -2.03,-2.006 -1.863,-1.831l-14.092,-14.594l-1.833,-2.001l-0.09,-0.104l-13.285,-15.471l-0.088,-0.103l-1.496,-1.842l-0.148,-0.192l-12.267,-16.109l-1.624,-2.248l-0.058,-0.086l-11.393,-16.909l-0.201,-0.302c-0.423,-0.647 -0.833,-1.296 -1.227,-1.957l-0.039,-0.066l-10.358,-17.506c-0,-0 -1.535,-2.806 -1.349,-2.438l-9.347,-18.118l-0.121,-0.238c-0,0 -1.089,-2.311 -1.132,-2.396l-9.146,-20.806c-0,-0 -1.165,-2.898 -1.187,-2.948l-7.777,-21.376c0,0 -0.933,-2.866 -0.983,-3.005Zm-0,0c-0.003,-0.007 -0.003,-0.007 -0,0Z" style="fill:#df8425;"/><path d="M2122.7,840.689l2.005,1.743l0.155,0.143l26.735,24.875l1.915,1.856l0.034,0.034l25.598,26.261c0.485,0.496 0.957,1.005 1.426,1.517c0.105,0.114 0.209,0.23 0.312,0.346l24.326,27.512l0.181,0.207c0.474,0.547 0.936,1.1 1.398,1.675l0.032,0.039l22.899,28.595c-0,-0 1.479,1.943 1.535,2.013l20.658,28.477l0.055,0.077c-0,0 1.255,1.828 1.311,1.906c0.087,0.132 18.882,28.785 19.084,29.096l1.467,2.329l0.012,0.02l17.907,30.278l0.106,0.18c-0,-0 1.264,2.304 1.063,1.916c-0,-0 16.156,30.49 16.311,30.786c-0,-0 1.415,2.847 1.228,2.442l15.005,31.82l0.074,0.157c0.285,0.616 0.568,1.244 0.843,1.894l0.06,0.143l13.497,32.48l0.135,0.33c0.228,0.569 0.446,1.138 0.659,1.713l0.074,0.202c-0,-0 11.779,32.579 11.867,32.827c0,0 0.817,2.419 0.854,2.52l10.411,33.604l0.005,0.016l2.051,10.154l-0.008,10.12l-1.943,9.735l-3.729,9.085l-5.388,8.211l-6.936,7.105l-8.347,5.727l-9.538,4.044l-10.16,2.059l-10.126,-0.006l-9.739,-1.942l-9.088,-3.731l-8.213,-5.389l-7.106,-6.939l-5.727,-8.353c-0,0 -4.035,-9.527 -4.041,-9.538l-9.987,-32.254l-11.187,-30.951l-12.634,-30.409l-13.998,-29.684l-15.259,-28.796l-16.783,-28.379l-17.935,-27.328l-19.2,-26.48l-21.418,-26.748l-22.742,-25.724l-23.718,-24.323l-25.163,-23.416l-26.117,-22.019l-27.334,-20.847l-28.017,-19.288l-29.195,-18.068l-31.03,-17.171l-8.52,-5.903l-7.009,-7.305l-5.345,-8.369l-3.605,-9.137l-1.803,-9.656l0.081,-9.931l2.055,-9.915l4.082,-9.53l0.002,-0.003l5.904,-8.516l7.305,-7.004l8.367,-5.342l9.135,-3.602l9.654,-1.802l9.928,0.08l9.913,2.053l9.529,4.079l0.008,0.004l32.043,17.733c-0,0 2.663,1.576 2.237,1.307l31.237,19.319l0.331,0.208c0.576,0.368 1.146,0.739 1.722,1.134l0.05,0.034l30.247,20.826l0.239,0.167c0.531,0.374 1.06,0.751 1.581,1.14l0.21,0.159l29.194,22.277l0.052,0.04c0,0 2.163,1.759 1.894,1.529c0,-0 27.528,23.207 27.8,23.44Z" style="fill:#df8425;"/></svg>