<?xml version="1.0" encoding="UTF-8" standalone="no"?><!DOCTYPE svg PUBLIC "-//W3C//DTD SVG 1.1//EN" "http://www.w3.org/Graphics/SVG/1.1/DTD/svg11.dtd"><svg width="100%" height="100%" viewBox="0 0 384 384" version="1.1" xmlns="http://www.w3.org/2000/svg" xmlns:xlink="http://www.w3.org/1999/xlink" xml:space="preserve" xmlns:serif="http://www.serif.com/" style="fill-rule:evenodd;clip-rule:evenodd;stroke-linejoin:round;stroke-miterlimit:2;"><rect id="Logo" x="0" y="0" width="384" height="384" style="fill:none;"/><g id="Logo1" serif:id="Logo"><g id="FordSVG"><path d="M191.25,119.204c96.002,-0 174.133,29.32 174.133,65.286c-0,35.966 -78.131,65.286 -174.133,65.286c-96.002,-0 -174.133,-29.209 -174.133,-65.286c0,-36.301 77.461,-65.286 174.133,-65.286Zm0,124.931c92.149,0 166.873,-26.695 166.873,-59.589c-0,-32.895 -74.724,-59.59 -166.873,-59.59c-92.149,0 -166.873,26.695 -166.873,59.59c0,32.894 74.724,59.589 166.873,59.589Zm-0,-114.264c88.909,-0 161.009,24.573 161.009,54.619c-0,30.046 -72.1,54.619 -161.009,54.619c-88.909,-0 -161.009,-24.573 -161.009,-54.619c0,-30.046 72.1,-54.619 161.009,-54.619Zm-82.71,90.585c7.595,-0.056 14.688,-2.346 23.121,-11.058c7.986,-8.098 15.302,-20.273 22.115,-31.498c0.224,-0.335 0.335,-0.559 1.396,-0.67c4.245,-0.559 10.556,-1.173 14.633,-1.397c0.893,-0.055 1.061,-0.055 1.452,0.391c1.061,1.285 2.624,2.458 3.909,3.128c0.614,0.335 0.893,0.503 1.396,0.503c0.559,-0 1.061,-0.336 1.34,-0.671c0.447,-0.446 0.559,-1.061 0.336,-1.452c-0.224,-0.446 -3.016,-2.01 -3.128,-2.625c-0.056,-0.39 0.391,-0.502 0.391,-0.502c2.066,-0.614 4.244,-1.955 5.529,-4.468c1.284,-2.457 1.508,-5.752 -0.838,-7.595c-2.066,-1.62 -5.138,-1.341 -7.651,0.893c-2.457,2.178 -3.239,5.362 -2.904,8.098c0.056,0.447 0.056,0.615 -0.614,0.67c-3.742,0.28 -7.316,0.391 -11.337,0.615c-0.28,-0 -0.391,-0.168 -0.224,-0.335c4.636,-8.042 11.561,-13.739 19.156,-19.38c0.503,-0.335 0.335,-1.061 0.335,-1.675c13.794,2.96 27.086,8.545 41.383,8.433c5.92,-0.056 11.561,-0.949 16.978,-3.909c4.747,-2.569 6.646,-4.971 6.813,-7.484c0.112,-1.731 -1.061,-2.848 -2.792,-2.457c-14.409,3.351 -28.203,3.295 -42.556,1.564c-18.765,-2.29 -36.636,-7.316 -55.513,-5.753c-15.637,1.285 -30.548,10.109 -30.604,23.512c-0,6.814 4.803,12.287 12.286,12.063c8.768,-0.279 15.973,-7.316 19.77,-16.196c1.397,-3.406 -1.228,-4.802 -2.513,-2.848c-2.289,3.463 -5.473,6.199 -8.88,7.875c-4.132,2.01 -8.544,1.452 -9.885,-1.899c-1.843,-4.747 2.067,-11.84 11.002,-15.191c12.901,-4.747 26.416,-1.619 39.429,0.838c0.223,0 0.893,0.391 0.279,0.726c-2.345,1.229 -4.635,2.29 -8.209,5.361c-2.569,2.234 -5.92,5.138 -8.489,8.322c-2.569,3.127 -4.412,5.975 -6.814,9.047c-0.335,0.447 -0.726,0.447 -0.726,0.447c-5.864,0.949 -11.672,1.619 -16.922,5.305c-1.061,0.782 -1.563,2.123 -0.893,3.128c0.614,0.949 1.955,1.005 2.904,0.335c3.239,-2.457 6.646,-3.574 10.499,-3.686c0.168,-0 0.224,-0 0.28,0.112c0.055,0.055 -0,0.167 -0.056,0.279c-5.808,8.042 -7.261,9.885 -11.617,14.855c-2.234,2.569 -4.412,4.747 -6.869,6.981c-9.885,9.215 -20.552,9.048 -24.349,3.295c-2.29,-3.462 -2.011,-7.092 -0.503,-10.108c1.843,-3.686 5.585,-6.423 8.656,-7.986c1.173,-0.615 1.508,-2.067 0.335,-3.407c-0.726,-0.894 -2.457,-1.005 -3.797,-0.782c-4.077,0.726 -8.824,3.798 -11.672,7.484c-3.184,4.132 -4.803,9.159 -4.245,14.799c1.005,10.165 9.383,16.029 18.877,15.973Zm65.006,-49.984c-0.223,-1.564 0.28,-3.574 1.955,-5.082c0.838,-0.726 1.955,-0.838 2.625,-0.279c0.726,0.67 0.391,2.289 -0.391,3.406c-0.838,1.229 -2.29,2.29 -3.574,2.569c-0.28,0.056 -0.503,-0.055 -0.615,-0.614Zm120.017,-4.691c0.223,-0.391 -0,-0.67 -0.503,-0.67l-8.768,-0c-0.67,-0 -1.005,0.056 -1.284,0.67c-1.006,1.955 -13.292,20.384 -15.582,23.959c-0.391,0.558 -0.838,0.446 -0.893,-0.168c-0.224,-2.122 -2.067,-4.58 -4.971,-5.752c-2.178,-0.894 -4.356,-1.061 -6.59,-0.782c-4.021,0.558 -7.651,2.681 -10.834,5.082c-4.803,3.63 -8.88,8.321 -14.241,11.84c-2.905,1.898 -6.87,3.518 -9.55,1.061c-2.402,-2.234 -2.123,-7.205 1.563,-11.058c0.391,-0.391 0.838,-0.056 0.782,0.279c-0.335,1.731 0.112,3.463 1.396,4.636c1.62,1.452 3.91,1.619 5.864,0.67c2.346,-1.173 3.686,-3.351 4.077,-5.92c0.615,-3.909 -2.401,-7.372 -6.143,-7.651c-3.072,-0.224 -5.976,0.837 -8.88,3.239c-1.452,1.173 -2.234,2.066 -3.518,3.853c-0.279,0.447 -0.782,0.503 -0.726,-0.167c0.167,-5.026 -1.955,-7.819 -6.088,-7.931c-3.183,-0.055 -6.645,1.676 -9.326,3.798c-2.96,2.346 -5.473,5.473 -8.266,8.433c-0.335,0.335 -0.614,0.335 -0.726,-0.335c-0.111,-3.295 -0.893,-6.534 -2.457,-8.824c-0.558,-0.782 -1.675,-1.173 -2.625,-0.67c-0.446,0.223 -2.01,0.949 -3.127,1.843c-0.559,0.447 -0.782,1.117 -0.559,1.955c1.508,4.97 1.173,10.611 -0.837,15.358c-1.843,4.356 -5.418,8.321 -9.662,9.605c-2.792,0.894 -5.696,0.447 -7.484,-2.01c-2.457,-3.407 -1.452,-9.327 2.178,-14.241c3.24,-4.3 7.931,-7.093 12.566,-8.824c0.559,-0.224 0.67,-0.559 0.503,-1.005c-0.224,-0.782 -0.67,-1.788 -0.838,-2.29c-0.447,-1.117 -1.619,-1.341 -3.072,-1.173c-3.406,0.391 -6.422,1.564 -9.438,3.183c-7.874,4.245 -11.839,12.399 -13.627,16.81c-0.837,2.123 -1.563,3.407 -2.457,4.58c-1.229,1.564 -2.792,3.016 -5.696,5.473c-0.28,0.223 -0.447,0.726 -0.224,1.173c0.28,0.614 1.787,2.681 2.178,2.904c0.447,0.223 1.006,-0.112 1.229,-0.223c2.01,-1.341 4.412,-3.519 5.585,-4.971c0.391,-0.503 0.837,-0.279 1.061,0.447c1.117,3.909 3.965,7.093 7.93,8.433c7.26,2.457 14.8,-1.117 20.44,-7.26c3.631,-3.91 4.915,-6.423 6.311,-8.154c2.346,-2.904 6.981,-9.382 12.454,-13.571c2.011,-1.564 4.412,-2.737 5.585,-1.955c0.949,0.615 1.285,2.067 -0.279,4.915c-5.585,10.22 -13.85,22.283 -15.358,25.187c-0.28,0.503 -0.056,0.894 0.502,0.894l8.489,-0c0.447,-0 0.67,-0.224 0.894,-0.559c4.3,-6.757 8.377,-13.18 12.677,-19.77c0.224,-0.391 0.447,-0.111 0.447,0.056c0.112,1.564 0.447,3.63 1.396,5.026c1.62,2.569 3.965,3.63 6.534,3.686c2.067,0 3.072,-0.279 5.306,-1.117c1.787,-0.67 3.239,-1.563 4.356,-2.345c0.67,-0.447 0.782,0.279 0.726,0.391c-1.005,5.361 0.223,11.672 5.529,14.352c6.366,3.128 13.347,-1.284 17.368,-5.249c0.391,-0.391 0.838,-0.335 0.838,0.502c0.112,1.508 0.782,3.351 2.011,4.58c3.351,3.407 10.164,2.066 16.977,-3.239c4.356,-3.407 8.992,-8.154 13.125,-13.236c0.167,-0.168 0.279,-0.503 -0,-0.838c-0.615,-0.67 -1.564,-1.396 -2.179,-2.01c-0.279,-0.224 -0.67,-0.168 -0.949,-0c-4.244,4.021 -8.098,8.656 -13.571,12.454c-1.843,1.284 -4.859,2.345 -6.143,0.558c-0.503,-0.67 -0.447,-1.675 0.056,-2.96c1.675,-3.853 27.198,-42.667 28.538,-44.957Zm-33.732,32.559c0.056,0.279 0.447,0.559 0.838,0.726c0.111,0.056 0.223,0.168 0.055,0.447c-1.061,2.345 -2.066,3.686 -3.462,5.696c-1.229,1.843 -2.681,3.295 -4.356,4.747c-2.569,2.123 -6.143,4.412 -9.103,2.904c-1.285,-0.67 -1.899,-2.513 -1.843,-4.021c0.055,-4.188 1.898,-8.488 5.361,-12.677c4.189,-5.138 8.824,-7.819 11.84,-6.367c3.127,1.508 2.122,5.138 0.726,7.987c-0.112,0.167 -0.112,0.391 -0.056,0.558Z" style="fill:#003478;"/></g></g></svg>