<?xml version="1.0" encoding="UTF-8" standalone="no"?><!DOCTYPE svg PUBLIC "-//W3C//DTD SVG 1.1//EN" "http://www.w3.org/Graphics/SVG/1.1/DTD/svg11.dtd"><svg width="100%" height="100%" viewBox="0 0 384 384" version="1.1" xmlns="http://www.w3.org/2000/svg" xmlns:xlink="http://www.w3.org/1999/xlink" xml:space="preserve" xmlns:serif="http://www.serif.com/" style="fill-rule:evenodd;clip-rule:evenodd;stroke-linejoin:round;stroke-miterlimit:2;"><rect id="Logo" x="0" y="0" width="384" height="384" style="fill:none;"/><g id="Logo1" serif:id="Logo"><g id="Land-RoverSVG" serif:id="Land RoverSVG"><path d="M361.536,198.782c-2.99,6.646 -7.211,12.448 -12.193,17.719c-7.623,8.068 -16.523,14.48 -26.086,20.022c-10.326,5.98 -21.204,10.751 -32.45,14.709c-13.5,4.748 -27.338,8.206 -41.419,10.706c-8.271,1.464 -16.592,2.567 -24.955,3.362c-12.514,1.189 -25.052,1.71 -37.616,1.476c-5.774,-0.107 -11.555,-0.291 -17.313,-0.707c-6.731,-0.487 -13.452,-1.168 -20.159,-1.94c-9.672,-1.112 -19.245,-2.854 -28.733,-5.03c-17.154,-3.935 -33.796,-9.369 -49.629,-17.131c-10.232,-5.012 -19.931,-10.874 -28.661,-18.242c-7.387,-6.239 -13.81,-13.305 -18.376,-21.913c-3.673,-6.924 -5.724,-14.277 -5.659,-22.15c0.069,-8.457 2.544,-16.241 6.774,-23.502c4.227,-7.255 9.77,-13.399 16.081,-18.881c9.327,-8.1 19.806,-14.409 30.889,-19.759c13.878,-6.697 28.387,-11.621 43.317,-15.359c8.354,-2.092 16.784,-3.843 25.302,-5.082c6.771,-0.983 13.573,-1.798 20.382,-2.494c9.955,-1.015 19.95,-1.37 30.596,-1.433c8.865,0.013 18.355,0.343 27.832,1.104c12.021,0.962 23.953,2.555 35.782,4.903c16.855,3.345 33.292,8.087 49.103,14.879c9.794,4.209 19.207,9.124 28.015,15.156c8.137,5.572 15.565,11.93 21.666,19.736c5.011,6.407 8.793,13.437 10.591,21.426c2.212,9.818 1.029,19.286 -3.081,28.425Zm-5.219,-34.438c-3.228,-7.57 -8.275,-13.846 -14.168,-19.488c-6.81,-6.527 -14.489,-11.879 -22.661,-16.547c-12.01,-6.866 -24.727,-12.106 -37.905,-16.258c-16.517,-5.201 -33.428,-8.546 -50.606,-10.577c-8.559,-1.016 -17.148,-1.67 -25.761,-1.994c-14.711,-0.558 -29.402,-0.199 -44.063,1.146c-8.292,0.759 -16.544,1.835 -24.75,3.265c-10.53,1.836 -20.932,4.213 -31.168,7.301c-13.665,4.119 -26.863,9.375 -39.343,16.337c-9.396,5.241 -18.172,11.342 -25.762,19.027c-5.086,5.148 -9.408,10.843 -12.333,17.512c-3.077,7.008 -4.162,14.288 -2.966,21.875c1.053,6.675 3.771,12.667 7.566,18.2c5.095,7.426 11.589,13.474 18.764,18.83c11.359,8.478 23.895,14.788 37.037,19.956c13.391,5.265 27.202,9.084 41.304,11.888c12.837,2.555 25.789,4.276 38.848,5.104c7.882,0.499 15.783,0.704 23.163,1.02c7.345,-0.282 14.167,-0.492 20.985,-0.82c7.773,-0.37 15.511,-1.168 23.223,-2.193c9.224,-1.225 18.375,-2.856 27.439,-4.968c17.192,-4.009 33.829,-9.588 49.585,-17.624c10.719,-5.467 20.757,-11.94 29.491,-20.29c4.928,-4.707 9.244,-9.91 12.438,-15.967c5.959,-11.315 6.688,-22.904 1.643,-34.735Zm-4.079,30.555c-2.835,6.206 -6.972,11.479 -11.779,16.252c-7.047,6.993 -15.12,12.609 -23.737,17.47c-12.219,6.897 -25.162,12.078 -38.562,16.163c-10.091,3.075 -20.348,5.448 -30.735,7.267c-7.543,1.321 -15.131,2.331 -22.757,3.082c-10.864,1.07 -21.754,1.591 -34.035,1.58c-7.065,0.034 -15.482,-0.299 -23.889,-0.932c-10.471,-0.792 -20.882,-2.082 -31.223,-3.931c-15.668,-2.805 -30.993,-6.843 -45.82,-12.663c-12.565,-4.928 -24.563,-10.941 -35.473,-18.965c-6.882,-5.064 -13.146,-10.765 -18.101,-17.786c-3.435,-4.865 -5.984,-10.135 -7.115,-16.02c-1.43,-7.441 -0.361,-14.568 2.795,-21.415c2.852,-6.195 6.996,-11.459 11.811,-16.228c7.175,-7.105 15.408,-12.779 24.191,-17.69c11.359,-6.354 23.349,-11.238 35.745,-15.155c9.17,-2.896 18.476,-5.267 27.932,-7.002c6.118,-1.123 12.256,-2.206 18.43,-2.954c7.409,-0.899 14.856,-1.518 22.302,-2.079c8.907,-0.673 17.842,-0.782 26.767,-0.524c6.893,0.202 13.784,0.591 20.661,1.076c10.288,0.726 20.495,2.137 30.633,4.025c19.103,3.558 37.645,8.932 55.291,17.175c8.513,3.977 16.667,8.572 24.241,14.152c6.818,5.026 13.034,10.675 17.966,17.619c3.378,4.754 5.906,9.903 7.108,15.644c1.583,7.575 0.55,14.842 -2.647,21.839Zm-98.773,-55.321c-0.389,-4.418 -2.517,-7.671 -6.634,-9.511c-2.668,-1.196 -5.503,-1.51 -8.384,-1.522c-5.559,-0.017 -11.12,-0.006 -16.681,-0.002c-0.337,0 -0.697,-0.107 -0.847,0.41c-0.136,0.47 -0.226,0.83 0.234,1.183c0.826,0.635 1.05,1.501 0.805,2.494c-0.115,0.462 -0.23,0.926 -0.383,1.376c-3.478,10.159 -6.959,20.321 -10.44,30.48c-0.872,2.541 -1.742,5.085 -2.651,7.74l0.692,0c6.159,0 12.316,0.019 18.471,-0.013c1.739,-0.012 3.483,-0.118 5.212,-0.296c6.469,-0.674 11.298,-3.858 14.472,-9.553c2.03,-3.642 3.535,-7.495 4.633,-11.505c1.01,-3.686 1.84,-7.418 1.501,-11.281Zm-11.641,3.299c-0.203,1.923 -0.619,3.863 -1.231,5.699c-0.937,2.816 -2.116,5.553 -3.214,8.311c-0.165,0.416 -0.452,0.784 -0.681,1.175c-1.361,2.335 -3.421,3.533 -6.095,3.644c-2.047,0.083 -4.1,0.075 -6.151,0.106c-0.087,0.002 -0.177,-0.037 -0.328,-0.067c0.441,-1.292 0.866,-2.546 1.298,-3.799c2.104,-6.098 4.221,-12.192 6.304,-18.295c0.196,-0.575 0.46,-0.77 1.058,-0.743c1.999,0.092 4.016,-0.008 5.994,0.228c2.178,0.26 3.27,1.581 3.046,3.741Zm-63.411,39.01c-2.275,-0.644 -4.604,-0.767 -6.956,-0.83c-1.783,0.14 -3.573,0.209 -5.343,0.435c-6.592,0.843 -11.494,4.211 -14.701,10.027c-2.961,5.373 -4.847,11.125 -5.928,17.15c-0.426,2.375 -0.667,4.777 -0.247,7.188c0.923,5.291 4.209,8.346 9.284,9.584c3.88,0.947 7.823,0.777 11.745,0.303c6.321,-0.763 11.197,-3.833 14.452,-9.352c2.268,-3.845 3.811,-7.991 5.003,-12.275c0.958,-3.432 1.716,-6.905 1.691,-10.485c-0.039,-5.971 -3.251,-10.12 -9,-11.745Zm-4.272,19.418c-1.015,2.871 -1.971,5.779 -3.244,8.539c-2.009,4.355 -4.251,5.67 -9.052,5.902c-0.985,-0.153 -1.996,-0.211 -2.944,-0.479c-1.682,-0.481 -2.661,-1.725 -2.51,-3.462c0.158,-1.788 0.418,-3.617 0.982,-5.312c1.094,-3.293 2.35,-6.54 3.703,-9.733c0.79,-1.867 2.078,-3.466 4.018,-4.3c2.365,-1.014 4.858,-1.184 7.361,-0.623c1.912,0.43 2.822,1.701 2.828,3.673c0.008,2.007 -0.485,3.93 -1.142,5.795Zm-36.59,-18.807c-2.314,-0.686 -4.693,-0.824 -7.083,-0.828c-5.848,-0.009 -11.696,-0.006 -17.545,0.002c-0.345,-0 -0.761,-0.167 -0.943,0.38c-0.161,0.489 -0.247,0.87 0.244,1.248c0.853,0.653 1.046,1.55 0.766,2.566c-0.134,0.481 -0.255,0.966 -0.419,1.44c-4.29,12.404 -8.586,24.804 -12.88,37.206c-0.088,0.253 -0.151,0.513 -0.226,0.768c0.138,0.043 0.182,0.069 0.228,0.069c3.771,0.006 7.541,0.018 11.313,-0.005c0.2,-0.002 0.503,-0.246 0.579,-0.443c0.391,-1.024 0.723,-2.07 1.078,-3.105c1.242,-3.654 2.48,-7.307 3.747,-10.953c0.079,-0.228 0.364,-0.539 0.565,-0.547c1.214,-0.051 2.431,-0.026 3.671,-0.026c0.102,0.301 0.201,0.565 0.282,0.835c1.355,4.518 2.714,9.034 4.05,13.558c0.148,0.504 0.345,0.721 0.915,0.715c3.557,-0.029 7.113,-0.013 10.671,-0.015c0.21,-0.002 0.421,-0.019 0.728,-0.035c-1.894,-5.146 -3.765,-10.232 -5.666,-15.403c0.242,-0.044 0.356,-0.069 0.471,-0.087c3.43,-0.561 6.186,-2.235 8.091,-5.137c2.58,-3.924 4.049,-8.261 4.189,-12.965c0.143,-4.819 -2.186,-7.865 -6.826,-9.238Zm-4.729,12.142c-0.236,1.181 -0.625,2.342 -1.073,3.462c-0.583,1.454 -1.787,2.29 -3.303,2.388c-2.824,0.178 -5.659,0.19 -8.599,0.276c0.161,-0.483 0.266,-0.819 0.381,-1.148c0.857,-2.473 1.726,-4.94 2.563,-7.42c0.136,-0.401 0.307,-0.554 0.746,-0.55c2.145,0.026 4.29,0.011 6.437,0.017c0.237,-0 0.477,0.006 0.711,0.044c1.639,0.272 2.461,1.309 2.137,2.931Zm28.674,-22.493c-0.828,-14.556 -1.652,-29.051 -2.479,-43.548c-0.176,-0.027 -0.268,-0.054 -0.36,-0.054c-5.467,-0.004 -10.932,-0.008 -16.398,0.014c-0.207,0.001 -0.497,0.222 -0.598,0.417c-0.161,0.313 -0.388,0.683 0.047,1.016c0.771,0.589 0.815,1.38 0.464,2.189c-0.406,0.938 -0.832,1.877 -1.355,2.751c-7.056,11.837 -14.133,23.661 -21.204,35.49c-0.326,0.548 -0.654,1.097 -1.062,1.785l0.715,-0c3.772,-0 7.543,-0.01 11.315,0.013c0.5,0.004 0.755,-0.167 0.995,-0.59c1.585,-2.83 3.211,-5.634 4.79,-8.463c0.259,-0.464 0.546,-0.613 1.064,-0.61c3.891,0.021 7.782,0.012 11.672,0.014c0.232,-0 0.465,0.021 0.83,0.038l-0,9.538l11.564,0Zm-12.007,-18.353l-7.842,-0c2.517,-4.463 4.978,-8.862 7.483,-13.236c0.119,0.036 0.238,0.075 0.359,0.111l-0,13.125Zm66.741,-25.268l-0.856,-0c-3.271,0.004 -6.541,0.024 -9.809,0.001c-0.59,-0.004 -0.866,0.152 -1.058,0.738c-1.277,3.894 -2.593,7.773 -3.899,11.655c-1.244,3.701 -2.492,7.4 -3.805,11.297c-0.094,-0.395 -0.153,-0.599 -0.193,-0.807c-1.425,-7.395 -2.854,-14.788 -4.254,-22.186c-0.101,-0.532 -0.272,-0.698 -0.816,-0.696c-4.702,0.022 -9.404,0.012 -14.106,0.015c-0.317,-0 -0.662,-0.1 -0.798,0.38c-0.124,0.441 -0.326,0.816 0.175,1.186c0.958,0.701 1.083,1.681 0.797,2.757c-0.09,0.345 -0.182,0.692 -0.297,1.031c-3.907,11.425 -7.819,22.851 -11.727,34.276c-0.452,1.32 -0.897,2.643 -1.37,4.034l0.805,0c3.128,0 6.254,-0.02 9.38,0.017c0.623,0.008 0.844,-0.216 1.029,-0.769c2.991,-8.896 6.002,-17.784 9.012,-26.673c0.061,-0.181 0.151,-0.35 0.304,-0.699c1.879,9.494 3.719,18.787 5.565,28.124l0.686,0c3.198,0 6.397,-0.014 9.596,0.015c0.556,0.005 0.759,-0.182 0.933,-0.694c4.219,-12.377 8.461,-24.747 12.698,-37.117c0.661,-1.935 1.318,-3.869 2.008,-5.885Zm16.957,53.141l-0.895,-0c-3.558,-0 -7.116,0.018 -10.671,-0.017c-0.644,-0.008 -0.959,0.195 -1.248,0.763c-5.076,10.011 -10.177,20.011 -15.276,30.013c-0.12,0.236 -0.27,0.46 -0.406,0.688l-0.255,-0.075l-0.815,-31.372l-12.375,-0c-1.159,-0 -1.175,0.013 -1.433,1.194c0.255,0.157 0.509,0.332 0.78,0.481c0.998,0.549 1.522,1.416 1.688,2.515c0.071,0.471 0.133,0.947 0.154,1.422c0.542,11.417 1.077,22.833 1.616,34.248c0.061,1.258 0.134,2.513 0.205,3.836l0.774,-0c4.465,-0 8.929,-0.01 13.393,0.015c0.554,0.002 0.834,-0.174 1.1,-0.659c7.748,-14.102 15.515,-28.195 23.277,-42.29c0.118,-0.218 0.226,-0.444 0.387,-0.762Zm60.909,-37.372c-0.124,-0.029 -0.193,-0.059 -0.261,-0.059c-9.43,-0.003 -18.857,-0 -28.286,-0.014c-0.447,-0.002 -0.552,0.232 -0.675,0.569c-0.845,2.353 -1.704,4.701 -2.559,7.052l-1.008,2.768l19.709,0c-0.782,0.414 -1.586,0.694 -2.391,0.966c-6.473,2.197 -12.952,4.392 -19.423,6.596c-0.255,0.086 -0.604,0.215 -0.69,0.417c-0.47,1.106 -0.872,2.241 -1.334,3.457c0.213,-0.043 0.326,-0.053 0.431,-0.088c10.66,-3.505 21.321,-7.007 31.973,-10.535c0.297,-0.099 0.615,-0.437 0.728,-0.738c1.223,-3.255 2.408,-6.525 3.6,-9.792c0.071,-0.192 0.123,-0.392 0.186,-0.599Zm3.993,38.18c-2.296,-0.657 -4.648,-0.801 -7.014,-0.805c-5.823,-0.011 -11.646,-0.007 -17.47,0.006c-0.354,0 -0.801,-0.219 -1.006,0.381c-0.18,0.531 -0.2,0.921 0.291,1.292c0.853,0.648 0.951,1.557 0.721,2.521c-0.155,0.646 -0.359,1.286 -0.577,1.915c-4.257,12.285 -8.52,24.568 -12.78,36.853c-0.074,0.213 -0.132,0.428 -0.224,0.725l0.888,-0c3.437,-0 6.873,-0.021 10.31,0.021c0.679,0.008 0.936,-0.217 1.143,-0.834c1.52,-4.562 3.088,-9.111 4.621,-13.671c0.152,-0.452 0.347,-0.648 0.853,-0.617c0.832,0.05 1.676,0.073 2.504,-0.004c0.732,-0.069 1.016,0.188 1.221,0.886c1.313,4.504 2.687,8.99 4.017,13.49c0.159,0.533 0.368,0.754 0.974,0.746c3.533,-0.034 7.064,-0.015 10.596,-0.019c0.225,-0 0.451,-0.023 0.742,-0.04c-1.898,-5.172 -3.765,-10.259 -5.635,-15.352c0.136,-0.056 0.199,-0.096 0.264,-0.106c4.372,-0.636 7.392,-3.122 9.377,-6.95c1.672,-3.222 2.824,-6.632 3.069,-10.27c0.349,-5.165 -1.687,-8.684 -6.885,-10.168Zm-4.668,12.194c-0.22,1.184 -0.611,2.351 -1.065,3.467c-0.581,1.42 -1.771,2.254 -3.263,2.35c-2.827,0.18 -5.664,0.194 -8.512,0.28c-0,-0.199 -0.02,-0.278 0.001,-0.339c0.997,-2.906 1.996,-5.81 3.01,-8.756c2.509,-0 4.943,-0.046 7.376,0.015c1.825,0.046 2.785,1.192 2.453,2.983Zm-192.646,-7.309c-0.214,0.055 -0.323,0.076 -0.429,0.111c-10.68,3.51 -21.362,7.016 -32.037,10.546c-0.275,0.092 -0.563,0.42 -0.67,0.706c-1.021,2.718 -2.005,5.453 -3,8.183c-0.266,0.73 -0.53,1.462 -0.829,2.29l27.58,0c1.483,0 1.485,0.002 2.003,-1.42l3.272,-8.998l-19.729,0c0.121,-0.147 0.247,-0.205 0.379,-0.251c7.128,-2.415 14.257,-4.828 21.383,-7.253c0.276,-0.094 0.654,-0.232 0.747,-0.451c0.474,-1.106 0.871,-2.242 1.33,-3.463Zm18.212,-25.551l-17.264,0c3.829,-11.122 7.623,-22.14 11.439,-33.229l-14.896,0c-0.359,0.63 -0.526,1.184 0.196,1.731c0.742,0.563 0.873,1.394 0.652,2.269c-0.169,0.667 -0.356,1.335 -0.578,1.987c-4.204,12.281 -8.414,24.561 -12.622,36.841c-0.083,0.239 -0.146,0.486 -0.232,0.769c0.245,0.02 0.408,0.046 0.572,0.046c9.548,-0.001 19.096,-0.007 28.643,0.001c0.433,0.002 0.622,-0.144 0.758,-0.545c1.049,-3.09 2.121,-6.173 3.183,-9.258c0.058,-0.168 0.085,-0.345 0.149,-0.612Zm149.008,19.891c-0.119,-0.027 -0.163,-0.048 -0.209,-0.048c-10.217,-0.002 -20.434,-0.007 -30.651,0.011c-0.208,0.001 -0.519,0.209 -0.6,0.398c-0.159,0.377 -0.517,0.807 0.012,1.211c1.093,0.834 1.202,1.924 0.797,3.144c-0.149,0.453 -0.279,0.911 -0.435,1.361c-3.686,10.696 -7.378,21.392 -11.064,32.088c-0.621,1.798 -1.234,3.596 -1.863,5.433c0.209,0.017 0.347,0.042 0.487,0.042c9.429,0.002 18.858,-0.002 28.287,0.011c0.437,0 0.613,-0.147 0.751,-0.55c1.028,-2.998 2.082,-5.986 3.123,-8.976c0.061,-0.173 0.096,-0.351 0.174,-0.639l-17.075,0c0.788,-2.298 1.553,-4.474 2.273,-6.666c0.165,-0.51 0.388,-0.692 0.941,-0.689c4.607,0.025 9.215,0.008 13.823,0.025c0.481,0.004 0.703,-0.126 0.868,-0.594c0.924,-2.605 1.886,-5.194 2.833,-7.79c0.085,-0.23 0.14,-0.471 0.232,-0.788l-15.294,0c0.105,-0.316 0.182,-0.561 0.264,-0.805c0.606,-1.782 1.235,-3.556 1.808,-5.348c0.186,-0.584 0.441,-0.807 1.092,-0.803c5.036,0.031 10.073,0.01 15.111,0.031c0.537,-0 0.791,-0.152 0.974,-0.669c1.021,-2.898 2.085,-5.782 3.13,-8.671c0.084,-0.233 0.14,-0.477 0.211,-0.719Z" style="fill:#034e27;"/></g></g></svg>