<?xml version="1.0" encoding="UTF-8" standalone="no"?><!DOCTYPE svg PUBLIC "-//W3C//DTD SVG 1.1//EN" "http://www.w3.org/Graphics/SVG/1.1/DTD/svg11.dtd"><svg width="100%" height="100%" viewBox="0 0 384 384" version="1.1" xmlns="http://www.w3.org/2000/svg" xmlns:xlink="http://www.w3.org/1999/xlink" xml:space="preserve" xmlns:serif="http://www.serif.com/" style="fill-rule:evenodd;clip-rule:evenodd;stroke-linejoin:round;stroke-miterlimit:2;"><rect id="Logo" x="0" y="0" width="384" height="384" style="fill:none;"/><g id="Logo1" serif:id="Logo"><g id="ToyotaSVG"><path id="Emblem" d="M84.51,180.218l-0.178,-0.054c-5.917,-8.235 -10.228,-17.789 -11.383,-27.923c-1.086,-8.538 -0.039,-17.191 2.008,-25.504l0.202,0.163c2.403,-9.305 7.49,-17.695 13.616,-25.015c5.436,-6.242 11.911,-11.492 18.897,-15.904c22.332,-13.617 48.72,-19.425 74.673,-19.812c28.156,-0.698 57.219,3.923 81.885,18.145c6.273,3.683 12.353,7.886 17.408,13.143l0.086,0c7.607,7.522 13.934,16.672 17.005,26.993l0.17,0.178c2.707,7.777 3.707,16.16 3.342,24.371c-0.922,10.252 -4.327,20.472 -10.507,28.761c-0.527,1.093 -1.132,2.156 -1.868,3.133c-7.576,9.855 -17.409,17.873 -28.342,23.735c-12.267,6.723 -25.558,11.477 -39.221,14.392c-6.7,1.093 -13.353,2.668 -20.177,2.699c-15.772,1.581 -31.769,0.666 -47.324,-2.358c-16.694,-3.264 -33.164,-8.871 -47.533,-18.137c-8.631,-5.691 -16.842,-12.445 -22.759,-21.006Zm62.383,-59.219c3.676,0.535 7.367,1.093 11.089,1.241c1.434,-9.631 3.512,-19.293 7.762,-28.109c1.938,-4.762 5.125,-8.794 7.56,-13.268l0.202,-0.372c-14.509,1.799 -29.242,4.234 -42.525,10.654c-4.435,2.257 -9.041,4.769 -11.957,8.941c-1.938,2.652 -1.318,6.304 0.256,8.971c6.607,7.7 17.346,9.026 26.551,11.725l1.062,0.217Zm37.251,-20.58c-3.233,3.102 -4.986,7.336 -6.304,11.531c-1.039,3.892 -2.342,7.777 -2.442,11.848c7.917,0.062 15.834,-0.054 23.743,0.062c0.07,-0.845 0.132,-1.69 0.202,-2.535c-1.768,-7.243 -3.048,-15.237 -8.569,-20.727c-1.946,-1.637 -4.645,-1.908 -6.63,-0.179Zm26.078,-3.536c3.582,8.072 5.281,16.804 6.599,25.496c7.149,-0.411 14.159,-2.016 21.037,-3.916c5.707,-1.682 11.577,-3.59 16.106,-7.614c1.581,-1.923 3.256,-4.11 3.078,-6.747c0.062,-3.008 -2.117,-5.412 -4.218,-7.289c-5.041,-4.171 -11.112,-6.847 -17.199,-9.095c-11.166,-4.141 -23.054,-5.537 -34.724,-7.537c3.435,5.381 6.987,10.716 9.321,16.702Zm-4.133,110.831c15.811,-2.489 31.73,-6.684 45.316,-15.446c14.151,-8.785 26.62,-22.037 30.241,-38.74c2.148,-11.143 0.783,-23.17 -4.792,-33.149l-0.496,-0.318c-2.567,2.628 -4.692,5.691 -7.692,7.878c-13.33,10.716 -30.521,14.818 -47.084,17.393c-1.132,0.155 -2.272,0.302 -3.404,0.449c-0.124,12.299 -1.97,24.558 -4.808,36.515c-2.349,8.344 -5.847,16.501 -11.127,23.426c-0.721,0.713 -0.621,1.713 -0.636,2.644c1.497,-0.202 2.985,-0.419 4.482,-0.652Zm-59.94,-4.97c2.427,0.721 4.869,1.388 7.327,1.962c6.677,1.303 13.299,3.52 20.192,3.094c-2.357,-3.901 -5.172,-7.53 -7.009,-11.725c-5.32,-10.22 -7.181,-21.719 -8.84,-32.986c-0.915,-5.661 -1.125,-11.391 -1.318,-17.114c-15.695,-2.597 -31.878,-5.668 -45.456,-14.454c-4.947,-2.993 -8.987,-7.141 -12.639,-11.569l-0.427,0.341c-3.978,6.824 -5.466,14.764 -5.908,22.557c-0.148,12.151 4.644,24.046 12.43,33.281c10.832,12.787 25.814,21.526 41.648,26.613Zm28.272,-55.575c0.434,10.267 1.946,20.79 6.544,30.087c1.504,2.59 3.699,6.172 7.204,5.598c2.241,-0.411 3.776,-2.396 4.932,-4.21c3.062,-5.203 4.637,-11.135 5.668,-17.044c1.047,-4.738 1.737,-9.576 1.566,-14.438c-8.63,0.356 -17.284,0.325 -25.914,0.007Z" style="fill:#e6e6e6;"/><path id="Text" d="M102.151,243.772c6.498,-0.582 13.206,0.829 18.696,4.42c8.335,5.28 13.918,14.981 13.507,24.937c0.194,9.158 -4.427,18.176 -11.677,23.705c-10.275,8.204 -26.062,7.971 -36.151,-0.427c-8.925,-7.002 -13.36,-19.447 -10.212,-30.435c2.823,-11.825 13.64,-21.347 25.837,-22.2Zm-2.66,12.081c-10.289,3.722 -14.027,17.33 -9.033,26.558c2.737,5.777 9.01,9.848 15.454,9.468c3.606,-0.372 7.18,-1.799 9.809,-4.335c8.134,-7.374 7.529,-21.859 -0.806,-28.861c-4.126,-3.691 -10.259,-4.629 -15.424,-2.83Zm116.26,-11.554c6.358,-1.241 13.213,-0.768 19.075,2.14c8.165,3.8 14.508,11.546 16.222,20.433c1.473,6.28 0.496,13.034 -2.156,18.866c-3.792,8.25 -11.554,14.632 -20.486,16.446c-8.522,2.016 -17.858,-0.333 -24.651,-5.8c-7.39,-5.893 -11.732,-15.4 -10.941,-24.868c0.395,-12.856 10.398,-24.557 22.937,-27.217Zm2.799,11.088c-6.583,1.342 -11.414,7.398 -12.562,13.834c-2.016,8.731 2.799,19.029 11.585,21.859c4.35,1.714 9.297,0.613 13.136,-1.83c5.908,-3.954 8.932,-11.499 8.002,-18.463c-0.768,-4.854 -3.172,-9.545 -7.111,-12.577c-3.582,-2.931 -8.584,-3.908 -13.05,-2.823Zm-193.794,-9.94c15.989,-0.187 31.994,-0.047 47.991,-0.062c0.07,3.349 0.163,6.707 0.031,10.065c-0.186,0.186 -0.566,0.55 -0.76,0.736c-5.676,0.124 -11.352,-0.015 -17.036,0.047c0.039,15.066 -0.062,30.133 0.054,45.191c-4.094,0.194 -8.204,0.062 -12.298,0.101c-0.039,-15.113 0.07,-30.218 -0.062,-45.331c-5.94,0.077 -11.879,-0 -17.819,0.046c-0.085,-3.598 -0,-7.195 -0.101,-10.793Zm109.854,-0.086c4.645,0 9.29,0.016 13.935,-0.007c5.032,7.591 9.832,15.337 14.857,22.944c4.986,-7.614 9.855,-15.299 14.803,-22.937c4.559,0.016 9.111,-0.023 13.67,0.024c-7.064,11.166 -14.136,22.324 -21.238,33.467c-0.458,0.876 -1.171,1.713 -1.133,2.768c-0.116,6.638 0.031,13.283 -0.062,19.928c-4.164,-0.085 -8.328,0.086 -12.492,-0.131c0.086,-6.072 0,-12.136 0.055,-18.2c-0.047,-1.279 0.139,-2.698 -0.714,-3.768c-7.281,-11.329 -14.407,-22.759 -21.681,-34.088Zm118.88,0c15.99,-0.007 31.971,0.016 47.953,-0.007c0.062,3.621 0.038,7.242 0.023,10.871c-5.862,0.015 -11.724,-0.023 -17.587,0.023c0.062,15.067 -0.046,30.141 0.055,45.215c-4.172,0.124 -8.336,0.039 -12.5,0.062c-0.039,-15.105 0.054,-30.218 -0.047,-45.323c-5.963,0.023 -11.926,0.069 -17.889,-0.024c-0.008,-3.605 0,-7.211 -0.008,-10.817Zm68.183,0.078c5.39,-0.202 10.787,-0 16.176,-0.085c7.746,18.718 15.524,37.429 23.177,56.187c-4.745,-0.039 -9.499,-0.008 -14.252,-0.024c-1.628,-4.551 -3.365,-9.064 -5.219,-13.523c-7.831,0 -15.671,-0.202 -23.495,0.023c-1.729,4.506 -3.451,9.011 -5.172,13.516c-4.769,-0.031 -9.538,0.023 -14.307,-0.039c7.863,-18.618 15.168,-37.476 23.092,-56.055Zm7.809,12.011c-2.807,6.847 -5.312,13.81 -7.917,20.735c5.187,-0.039 10.375,-0.031 15.57,-0.008c-2.093,-7.048 -5.094,-13.818 -7.653,-20.727Z" style="fill:#d72027;"/></g></g></svg>