<svg xmlns="http://www.w3.org/2000/svg" xml:space="preserve" style="fill-rule:evenodd;clip-rule:evenodd;stroke-linejoin:round;stroke-miterlimit:2" viewBox="0 0 384 384"><path d="M0 0h384v384H0z" style="fill:none"/><path d="M362 199c-3 6-8 12-13 18-7 8-16 14-26 20s-21 10-32 14a263 263 0 0 1-67 14 332 332 0 0 1-153-23c-10-5-20-11-29-18-7-7-13-14-18-22-4-7-6-14-6-22 0-9 3-17 7-24s10-13 16-19a225 225 0 0 1 100-40 486 486 0 0 1 78-3 311 311 0 0 1 85 20c10 4 20 9 28 15s16 12 22 20c5 6 9 13 11 21 2 10 1 20-3 29Zm-6-35c-3-7-8-14-14-19-7-7-14-12-23-17-12-7-24-12-37-16a276 276 0 0 0-77-13 341 341 0 0 0-100 12c-13 4-27 10-39 17-10 5-18 11-26 19-5 5-9 10-12 17s-4 14-3 22c1 7 4 13 7 18 5 8 12 14 19 19 12 8 24 15 37 20a241 241 0 0 0 80 17l24 1 20-1a276 276 0 0 0 101-25c10-5 21-12 29-20l13-16c6-11 6-23 1-35Zm-4 31c-3 6-7 11-12 16-7 7-15 13-23 18a192 192 0 0 1-70 23 305 305 0 0 1-157-13c-13-5-25-11-36-19-7-5-13-11-18-18-3-4-6-10-7-16-1-7 0-14 3-21 3-6 7-11 12-16 7-7 15-13 24-18a190 190 0 0 1 63-22 306 306 0 0 1 175 17c8 4 16 8 24 14 7 5 13 10 18 17 3 5 6 10 7 16 1 8 0 15-3 22Zm-99-55c0-5-2-8-6-10l-9-1h-17v1l1 3v1l-11 30-3 8h25c6-1 11-4 14-10a51 51 0 0 0 6-22Zm-11 3-1 6-4 8v1c-2 2-4 4-6 4h-7l1-4 7-18 1-1h6c2 0 3 2 3 4Zm-64 39-7-1h-5c-6 1-11 5-15 11-3 5-4 11-6 17v7c1 5 4 8 10 9l11 1c7-1 11-4 15-10a51 51 0 0 0 6-22c0-6-3-10-9-12Zm-4 19-3 9c-2 4-4 6-9 6l-3-1c-2 0-3-1-3-3l1-6 4-9 4-5h7c2 0 3 2 3 4l-1 5Zm-36-19h-26v1l1 3v1l-13 38h-1 13l1-3 3-11 1-1h4v1l4 14h12l-5-15c4-1 6-2 8-5 3-4 4-9 4-13 1-5-2-8-6-10Zm-5 13-1 3c-1 2-2 2-4 2l-8 1v-1l3-8h8c1 0 2 1 2 3Zm28-23-2-43h-17v3l-1 3-21 35-1 2h13l4-9h14v9h11Zm-12-18h-7l7-13v13Zm67-25h-11l-4 12-4 11v-1l-5-22h-15s0-1 0 0v1l1 3-1 1-11 34-2 4h10l1-1 9-26 1-1 5 28h12l12-38 2-5Zm17 53h-13l-15 30v1h-1v-31h-13l-1 1h1l1 3v1l2 35v3h16l23-43Zm61-38h-28l-1 1-3 7-1 3h20l-2 1-20 6v1l-2 3h1l32-11 4-10v-1Zm4 38h-25v1l1 3-1 2-13 37h12l5-14 1-1h2l2 1 4 14h12l-6-15h1c4-1 7-3 9-7 2-3 3-7 3-10 0-6-2-9-7-11Zm-5 13-1 3c0 2-1 2-3 2l-8 1v-1l3-8h7c2 0 3 1 2 3Zm-192-8h-1l-32 11v1l-3 8-1 2h27l2-1 4-9H77l22-8 2-4Zm18-25h-17l11-33H98v1l1 3v2l-13 36v1h30l3-10Zm149 20h-31v6l-11 32-2 5h30l3-9v-1h-17l2-6 1-1h14l1-1 2-8h1-16l1-1 1-5 2-1h15l1-1 3-9Z" style="fill:#034e27"/></svg>